<svg width="24" height="24" viewBox="0 0 24 24" fill="none" xmlns="http://www.w3.org/2000/svg">
<g clip-path="url(#clip0_146_220)">
<path d="M19.5 0H4.5C2.01563 0 0 2.01563 0 4.5V19.5C0 21.9844 2.01563 24 4.5 24H19.5C21.9844 24 24 21.9844 24 19.5V4.5C24 2.01563 21.9844 0 19.5 0ZM7.42067 20.3726H3.69231L3.67067 9.20914H7.39904L7.42067 20.3726ZM5.46274 7.7488H5.44111C4.22236 7.7488 3.4363 6.90865 3.4363 5.86298C3.4363 4.79207 4.2476 3.98077 5.48798 3.98077C6.72837 3.98077 7.48918 4.79207 7.51442 5.86298C7.51442 6.90865 6.72476 7.7488 5.46274 7.7488ZM20.3474 20.3726H16.5865V14.3077C16.5865 12.8401 16.1971 11.8413 14.8846 11.8413C13.8822 11.8413 13.3413 12.5156 13.0817 13.1683C12.9844 13.4026 12.9591 13.7236 12.9591 14.0517V20.3726H9.18029L9.15865 9.20914H12.9375L12.9591 10.7849C13.4423 10.0385 14.2464 8.98197 16.1719 8.98197C18.5589 8.98197 20.3438 10.5397 20.3438 13.8894V20.3726H20.3474Z" fill="#93C754"/>
</g>
<defs>
<clipPath id="clip0_146_220">
<rect width="24" height="24" fill="white"/>
</clipPath>
</defs>
</svg>
