<svg width="30" height="30" viewBox="0 0 30 30" fill="none" xmlns="http://www.w3.org/2000/svg">
<path d="M24.6 2.3999H5.40002C3.74582 2.3999 2.40002 3.7457 2.40002 5.3999V24.5999C2.40002 26.2541 3.74582 27.5999 5.40002 27.5999H24.6C26.2542 27.5999 27.6 26.2541 27.6 24.5999V5.3999C27.6 3.7457 26.2542 2.3999 24.6 2.3999ZM22.2036 13.3937C22.0674 13.4063 21.9294 13.4147 21.7896 13.4147C20.2158 13.4147 18.8328 12.6053 18.0282 11.3819C18.0282 14.5913 18.0282 18.2429 18.0282 18.3041C18.0282 21.1295 15.7374 23.4203 12.912 23.4203C10.0866 23.4203 7.79582 21.1295 7.79582 18.3041C7.79582 15.4787 10.0866 13.1879 12.912 13.1879C13.0188 13.1879 13.1232 13.1975 13.2282 13.2041V15.7253C13.1232 15.7127 13.02 15.6935 12.912 15.6935C11.4696 15.6935 10.3008 16.8623 10.3008 18.3047C10.3008 19.7471 11.4696 20.9159 12.912 20.9159C14.3544 20.9159 15.6282 19.7795 15.6282 18.3371C15.6282 18.2801 15.6534 6.5807 15.6534 6.5807H18.063C18.2898 8.7353 20.0292 10.4357 22.2036 10.5917V13.3937Z" fill="#93C754"/>
</svg>
